<svg xmlns="http://www.w3.org/2000/svg" viewBox="0 0 700.27 660.2" role="img" aria-label="LabourMarket.ai">
  <!--
    PRODUCTION LM MARK — generated from the owner's original CorelDRAW vector
    (docs/brand/source/LM_Color Single.svg, md5 eafd130e9820d6e9df12cc075229d0b5).

    GEOMETRY IS UNCHANGED. Every coordinate below is copied verbatim from that
    file; the viewBox is the original 700.27 x 660.2. The ONLY differences are:
      1. the original's `fill:#FFA100` becomes the metallic-gold gradient, and
      2. the original's opaque black background <rect> is dropped, so the mark
         sits on whatever surface hosts it (the product ground is #000 anyway,
         and a baked-in rect would show as a black box on any other surface).
    Nothing was redrawn, re-traced or regenerated.
  -->
  <defs>
    <linearGradient id="lm-metal" x1="89" y1="537" x2="653" y2="123" gradientUnits="userSpaceOnUse">
      <stop offset="0" stop-color="#8C6A16"/>
      <stop offset="0.28" stop-color="#D4AF37"/>
      <stop offset="0.5" stop-color="#F2D675"/>
      <stop offset="0.72" stop-color="#D4AF37"/>
      <stop offset="1" stop-color="#8C6A16"/>
    </linearGradient>
  </defs>
  <g fill="url(#lm-metal)">
    <polygon points="158.18,123.09 89.02,123.09 89.02,533.46 336.3,533.46 336.3,464.3 158.18,464.3 "/>
    <polygon points="208.23,173.43 367.53,385.6 367.55,385.57 367.69,385.77 478.08,238.75 478.08,533.46 547.24,533.46 547.24,146.63 547.46,146.34 547.24,135.44 547.24,123.09 546.99,123.09 478.43,123.09 478.08,123.09 478.08,123.56 367.63,270.66 256.84,123.09 208.23,123.09 "/>
    <circle cx="614.05" cy="497.95" r="39.16"/>
    <polygon points="326.49,414.25 208.23,256.78 208.23,414.25 "/>
  </g>
</svg>
